<svg viewBox="0 0 390 700" xmlns="http://www.w3.org/2000/svg" preserveAspectRatio="xMidYMid slice">
  <defs>
    <linearGradient id="bg" x1="0%" y1="0%" x2="100%" y2="100%">
      <stop offset="0%" stop-color="#daeef9"/>
      <stop offset="40%" stop-color="#c2e3f5"/>
      <stop offset="100%" stop-color="#a8d8f0"/>
    </linearGradient>
    <radialGradient id="glow1" cx="90%" cy="10%" r="40%">
      <stop offset="0%" stop-color="#ffffff" stop-opacity="0.30"/>
      <stop offset="100%" stop-color="#ffffff" stop-opacity="0"/>
    </radialGradient>
    <radialGradient id="glow2" cx="10%" cy="90%" r="35%">
      <stop offset="0%" stop-color="#5badda" stop-opacity="0.15"/>
      <stop offset="100%" stop-color="#5badda" stop-opacity="0"/>
    </radialGradient>
    <linearGradient id="chipGrad" x1="0%" y1="0%" x2="100%" y2="100%">
      <stop offset="0%" stop-color="#c8a84b"/>
      <stop offset="100%" stop-color="#e6c96b"/>
    </linearGradient>
    <linearGradient id="cardFrontGrad" x1="0%" y1="0%" x2="100%" y2="100%">
      <stop offset="0%" stop-color="#f0f8ff"/>
      <stop offset="100%" stop-color="#daeef9"/>
    </linearGradient>
    <pattern id="grid" width="60" height="60" patternUnits="userSpaceOnUse">
      <path d="M 60 0 L 0 0 0 60" fill="none" stroke="rgba(255,255,255,0.12)" stroke-width="1"/>
    </pattern>
    <filter id="cardShadow">
      <feDropShadow dx="0" dy="8" stdDeviation="14" flood-color="#0a5082" flood-opacity="0.15"/>
    </filter>
    <filter id="badgeShadow">
      <feDropShadow dx="0" dy="3" stdDeviation="6" flood-color="#0a5082" flood-opacity="0.12"/>
    </filter>
  </defs>

  <rect width="390" height="700" fill="url(#bg)"/>
  <rect width="390" height="700" fill="url(#grid)"/>
  <rect width="390" height="700" fill="url(#glow1)"/>
  <rect width="390" height="700" fill="url(#glow2)"/>

  <circle cx="370" cy="40" r="160" fill="white" opacity="0.10"/>
  <circle cx="-20" cy="120" r="100" fill="white" opacity="0.08"/>

  <g transform="translate(30,450) rotate(-8)" opacity="0.55">
    <rect width="280" height="174" rx="16" fill="#1a6fa0"/>
  </g>

  <g transform="translate(40,458) rotate(-3)" opacity="0.75">
    <rect width="280" height="174" rx="16" fill="#2a8fc4"/>
  </g>

  <g transform="translate(38,452) rotate(2)" filter="url(#cardShadow)">
    <rect width="280" height="174" rx="16" fill="url(#cardFrontGrad)" stroke="white" stroke-opacity="0.9" stroke-width="1"/>
    <rect x="20" y="20" width="32" height="23" rx="4" fill="url(#chipGrad)"/>
    <text x="20" y="104" font-family="'Courier New', Courier, monospace" font-size="12" fill="#2a6080" letter-spacing="2">4821  ····  ····  3096</text>
    <text x="20" y="140" font-family="Arial, Helvetica, sans-serif" font-size="10" font-weight="700" fill="#1a5070" letter-spacing="2">J. HARGREAVES</text>
    <circle cx="238" cy="144" r="12" fill="#d1424b" opacity="0.85"/>
    <circle cx="251" cy="144" r="12" fill="#f59c1a" opacity="0.85"/>
  </g>

  <g transform="translate(224,448)" filter="url(#badgeShadow)">
    <rect width="158" height="46" rx="10" fill="white" opacity="0.97"/>
    <circle cx="23" cy="23" r="13" fill="#e8f7ed"/>
    <path d="M16 23 L20 27 L30 17" stroke="#2a9d5c" stroke-width="2" stroke-linecap="round" stroke-linejoin="round" fill="none"/>
    <text x="42" y="18" font-family="Arial, Helvetica, sans-serif" font-size="11" font-weight="700" fill="#1a3d52">Payment sent</text>
    <text x="42" y="33" font-family="Arial, Helvetica, sans-serif" font-size="9" fill="#5a8fa8">£1,250.00 · just now</text>
  </g>

  <g transform="translate(224,508)" filter="url(#badgeShadow)">
    <rect width="158" height="46" rx="10" fill="white" opacity="0.97"/>
    <circle cx="23" cy="23" r="13" fill="#daeef9"/>
    <path d="M23 14 L23 30 M16 23 L23 30 L30 23" stroke="#0a5c8a" stroke-width="2" stroke-linecap="round" stroke-linejoin="round" fill="none"/>
    <text x="42" y="18" font-family="Arial, Helvetica, sans-serif" font-size="11" font-weight="700" fill="#1a3d52">Savings growing</text>
    <text x="42" y="33" font-family="Arial, Helvetica, sans-serif" font-size="9" fill="#5a8fa8">+4.85% AER · ISA</text>
  </g>

  <circle cx="50" cy="660" r="100" fill="#5badda" opacity="0.10"/>
  <circle cx="340" cy="680" r="80" fill="white" opacity="0.14"/>

</svg>
